name D:\school\WTK\thesis\model\3dpredictsim\Results\batch_windlass\Pog_s1_tmt_bCst_d00_k800_WL10_ig24.mot
datacolumns 128
datarows 4
range 1.53928904 1.57007482
endheader
time	pelvis_tilt	pelvis_list	pelvis_rotation	pelvis_tx	pelvis_ty	pelvis_tz	hip_flexion_l	hip_adduction_l	hip_rotation_l	hip_flexion_r	hip_adduction_r	hip_rotation_r	knee_angle_l	knee_angle_r	ankle_angle_l	ankle_angle_r	subtalar_angle_l	subtalar_angle_r	tmt_angle_l	tmt_angle_r	mtp_angle_l	mtp_angle_r	lumbar_extension	lumbar_bending	lumbar_rotation	arm_flex_l	arm_add_l	arm_rot_l	arm_flex_r	arm_add_r	arm_rot_r	elbow_flex_l	elbow_flex_r	pro_sup_l	pro_sup_r	glut_med1_l/activation	glut_med2_l/activation	glut_med3_l/activation	glut_min1_l/activation	glut_min2_l/activation	glut_min3_l/activation	semimem_l/activation	semiten_l/activation	bifemlh_l/activation	bifemsh_l/activation	sar_l/activation	add_long_l/activation	add_brev_l/activation	add_mag1_l/activation	add_mag2_l/activation	add_mag3_l/activation	tfl_l/activation	pect_l/activation	grac_l/activation	glut_max1_l/activation	glut_max2_l/activation	glut_max3_l/activation	iliacus_l/activation	psoas_l/activation	quad_fem_l/activation	gem_l/activation	peri_l/activation	rect_fem_l/activation	vas_med_l/activation	vas_int_l/activation	vas_lat_l/activation	med_gas_l/activation	lat_gas_l/activation	soleus_l/activation	tib_post_l/activation	flex_dig_l/activation	flex_hal_l/activation	tib_ant_l/activation	per_brev_l/activation	per_long_l/activation	per_tert_l/activation	ext_dig_l/activation	ext_hal_l/activation	ercspn_l/activation	intobl_l/activation	extobl_l/activation	glut_med1_r/activation	glut_med2_r/activation	glut_med3_r/activation	glut_min1_r/activation	glut_min2_r/activation	glut_min3_r/activation	semimem_r/activation	semiten_r/activation	bifemlh_r/activation	bifemsh_r/activation	sar_r/activation	add_long_r/activation	add_brev_r/activation	add_mag1_r/activation	add_mag2_r/activation	add_mag3_r/activation	tfl_r/activation	pect_r/activation	grac_r/activation	glut_max1_r/activation	glut_max2_r/activation	glut_max3_r/activation	iliacus_r/activation	psoas_r/activation	quad_fem_r/activation	gem_r/activation	peri_r/activation	rect_fem_r/activation	vas_med_r/activation	vas_int_r/activation	vas_lat_r/activation	med_gas_r/activation	lat_gas_r/activation	soleus_r/activation	tib_post_r/activation	flex_dig_r/activation	flex_hal_r/activation	tib_ant_r/activation	per_brev_r/activation	per_long_r/activation	per_tert_r/activation	ext_dig_r/activation	ext_hal_r/activation	ercspn_r/activation	intobl_r/activation	extobl_r/activation	
          1.53928904	         -2.91721120	          1.21746886	         -5.82356646	          1.92411130	          0.85814825	          0.00184143	         31.07783322	          2.52817160	         -0.98648648	        -18.23068360	         -1.28869747	          9.49807745	        -19.94979330	         -9.28916668	         -6.69770936	         -2.79790850	         -3.92953042	         10.53841618	          0.01411359	         -1.44985718	         -0.15564517	         26.61098643	         -0.65517698	          0.62654619	          1.68302516	         -9.55903330	        -13.66747618	          7.45583180	          4.82251298	        -13.46198432	         14.91356991	         18.45884826	         31.96301752	         86.51662706	         86.51662706	          0.05000005	          0.05000005	          0.05000008	          0.05000014	          0.05000013	          0.05000016	          0.05000053	          0.05000028	          0.19962819	          0.05000022	          0.06856568	          0.13052808	          0.18918808	          0.21540724	          0.10539949	          0.05000124	          0.05855140	          0.09392058	          0.10218855	          0.05000007	          0.05000004	          0.05000022	          0.08029277	          0.08029287	          0.19372154	          0.05000074	          0.05000011	          0.07883143	          0.15124244	          0.14653866	          0.13060254	          0.05855161	          0.05855169	          0.05855160	          0.05000002	          0.05000010	          0.05000046	          0.22121702	          0.11458069	          0.08752524	          0.38097963	          0.65202873	          0.05000509	          0.05000014	          0.12830580	          0.13441378	          0.32585366	          0.08201079	          0.05855155	          0.33854593	          0.20068802	          0.09290576	          0.05000107	          0.05000021	          0.05000020	          0.06856589	          0.10148615	          0.08634637	          0.05000088	          0.05000062	          0.05000146	          0.05000191	          0.28467211	          0.05051530	          0.05000054	          0.05000146	          0.05000109	          0.05000102	          0.33389078	          0.49056313	          0.05000015	          0.05000052	          0.05000006	          0.17681546	          0.05855253	          0.09058817	          0.05000065	          0.29472487	          0.37426646	          0.25779765	          0.19471883	          0.20195449	          0.27246720	          0.05000000	          0.08612961	          0.15204472	          0.05000005	          0.05000000	          0.05000003	          0.05000000	          0.06811458	          0.05000002	
          1.54955096	         -2.90369923	          1.38178257	         -6.11791342	          1.93973710	          0.85717081	          0.00164578	         30.53486418	          3.02333595	         -0.69813912	        -17.84423671	         -1.63215282	          9.22498012	        -20.11719729	        -11.49171848	         -6.95063209	         -3.62398238	         -4.94112379	         11.68275908	          0.07749750	         -1.86286190	         -0.14062971	         27.49873157	         -0.45745871	          0.33666272	          1.73522924	        -10.46966757	        -13.66075497	          7.31155741	          4.60978644	        -13.48524749	         15.27499353	         18.31504444	         32.79894364	         86.51662706	         86.51662706	          0.05001549	          0.05000024	          0.05000009	          0.05000033	          0.05000038	          0.05000034	          0.05000002	          0.05000011	          0.17047200	          0.05855155	          0.05855167	          0.11146417	          0.16155676	          0.18394715	          0.09000591	          0.10458380	          0.05000018	          0.08020384	          0.08726403	          0.05000102	          0.07486734	          0.05000019	          0.06856584	          0.06856591	          0.30474978	          0.05855218	          0.05000027	          0.06731793	          0.24107641	          0.23137913	          0.20394039	          0.05000001	          0.05000007	          0.05000000	          0.12528109	          0.05856026	          0.05000247	          0.39660821	          0.09784590	          0.07474196	          0.34195759	          0.67490268	          0.37452551	          0.05000000	          0.10956642	          0.11478232	          0.27826199	          0.07003292	          0.05000005	          0.28910055	          0.17137707	          0.07933666	          0.05000167	          0.05000015	          0.05000019	          0.05855169	          0.08666391	          0.16224999	          0.11800821	          0.05000196	          0.05000107	          0.05000112	          0.24309510	          0.10249047	          0.05000058	          0.05000056	          0.05000035	          0.05000029	          0.28512523	          0.41891537	          0.05000006	          0.05000052	          0.05000069	          0.15099114	          0.05000098	          0.12843005	          0.15099046	          0.25167958	          0.31960393	          0.22014567	          0.16627968	          0.17245860	          0.23267273	          0.05000030	          0.07355020	          0.12983824	          0.05000007	          0.08304650	          0.05000016	          0.05000000	          0.06856580	          0.06186780	
          1.55981289	         -2.88625384	          1.55263114	         -6.38815146	          1.95559253	          0.85605528	          0.00146196	         29.81806905	          3.49498071	         -0.32619107	        -17.37648076	         -1.96729017	          8.93512104	        -20.62762171	        -13.83833574	         -6.79039496	         -4.53269131	         -6.01830059	         12.75096047	          0.00185435	         -2.27599534	         -0.07961449	         28.05966420	         -0.24305832	          0.03288489	          1.77769402	        -11.37289120	        -13.66029623	          7.23421106	          4.33451976	        -13.51611507	         15.58530282	         18.15041023	         33.62044558	         86.51662706	         86.51662706	          0.28908284	          0.05000009	          0.35471244	          0.05000048	          0.05000016	          0.05000010	          0.07912213	          0.05000198	          0.14664365	          0.05000002	          0.05000011	          0.09518460	          0.20759557	          0.23840155	          0.22853313	          0.13667280	          0.05000011	          0.06856590	          0.12444714	          0.05000009	          0.16877822	          0.14135779	          0.05855165	          0.05855170	          0.26024036	          0.05000057	          0.12812653	          0.05748599	          0.21194937	          0.21790817	          0.19167486	          0.05855159	          0.05855158	          0.05855160	          0.10698350	          0.05000743	          0.05000031	          0.33868261	          0.11010725	          0.08029273	          0.29411671	          0.61043940	          0.31982519	          0.05000000	          0.09356399	          0.09801808	          0.32005380	          0.05980445	          0.05000002	          0.24687681	          0.14634705	          0.06774936	          0.05000091	          0.05000008	          0.05000007	          0.05000009	          0.07400649	          0.18871689	          0.33299256	          0.05855085	          0.05008570	          0.05002348	          0.20759062	          0.08752288	          0.05000027	          0.05000153	          0.05000124	          0.05000089	          0.24348200	          0.37754332	          0.05000008	          0.05000023	          0.05000002	          0.12893852	          0.06861744	          0.10967265	          0.12893799	          0.21492116	          0.27292499	          0.18799286	          0.14199413	          0.14727064	          0.19869033	          0.15083837	          0.14463943	          0.13191954	          0.05000017	          0.21132782	          0.15006501	          0.08538265	          0.05855160	          0.05855186	
          1.57007482	         -2.86658602	          1.72760802	         -6.62604533	          1.97147760	          0.85487781	          0.00127244	         28.94737471	          3.95000098	          0.05090704	        -16.78741671	         -2.28302553	          8.64164012	        -21.12063736	        -16.38892419	         -6.15744521	         -5.44994056	         -7.06473865	         13.72577704	          0.17602738	         -2.58492467	          0.06137210	         27.96027950	         -0.02802994	         -0.27871108	          1.80930218	        -12.21794195	        -13.66461101	          7.25098316	          4.02865141	        -13.55238861	         15.85459158	         17.93042125	         34.40497206	         86.51662706	         86.51662706	          0.34994784	          0.36076016	          0.53952459	          0.14504975	          0.25353522	          0.30492097	          0.06756617	          0.09205005	          0.12522599	          0.06856590	          0.05000075	          0.08128266	          0.17727574	          0.20358250	          0.19515584	          0.16314989	          0.05000007	          0.05855186	          0.10627158	          0.27496348	          0.23563771	          0.16518914	          0.05000008	          0.05000010	          0.22223169	          0.05000041	          0.19260868	          0.05000000	          0.29148752	          0.30409023	          0.26547286	          0.05000000	          0.05000001	          0.05000000	          0.19915480	          0.05000044	          0.05000010	          0.42598097	          0.09402582	          0.06856579	          0.25116036	          0.53543911	          0.38440080	          0.06731300	          0.07989874	          0.08370230	          0.27330918	          0.05106987	          0.05000000	          0.21081991	          0.12497273	          0.05785442	          0.05000186	          0.05000015	          0.05000013	          0.05000009	          0.06319774	          0.21132054	          0.38138425	          0.05000021	          0.05000040	          0.08105364	          0.17727175	          0.07474090	          0.05000015	          0.05000018	          0.05000011	          0.05000007	          0.20792087	          0.32240222	          0.05000001	          0.05000008	          0.05000004	          0.11010674	          0.05859573	          0.09365473	          0.11010631	          0.18353140	          0.23306363	          0.16053604	          0.12125556	          0.12576147	          0.16967118	          0.21702207	          0.12351458	          0.11265240	          0.23451851	          0.26697120	          0.14805747	          0.11119875	          0.05000000	          0.05000022	
